<?xml version="1.0" encoding="UTF-8"?>
<svg width="700pt" height="700pt" version="1.1" viewBox="0 0 700 700" xmlns="http://www.w3.org/2000/svg">
 <path d="m350 116.67c90.207 0 163.33 73.125 163.33 163.33s-73.125 163.33-163.33 163.33-163.33-73.125-163.33-163.33 73.125-163.33 163.33-163.33zm98.891 109.5-21.426-21.695c-2.8008-2.8359-7.2539-2.9883-10.23-0.44922l-0.48047 0.44922-90.203 91.332-27.754-28.105c-2.8008-2.8359-7.2539-2.9844-10.23-0.44531l-0.48047 0.44531-21.426 21.699c-2.7969 2.8398-2.9453 7.3438-0.44531 10.363l0.44141 0.48828 54.492 55.285 0.48047 0.44922c2.8125 2.3984 6.9414 2.3984 9.7461-0.003907l0.48047-0.44922 117.04-118.52c2.8047-2.8359 2.9531-7.3438 0.44531-10.359l-0.44531-0.48828-21.426-21.695z" fill-rule="evenodd"/>
</svg>
